# xmcd
#
# Track frame offsets:
#	150
#	18221
#	33744
#	57317
#	77776
#	93757
#	111797
#	130738
#	154811
#	172789
#
# Disc length: 2677 seconds
#
# Revision: 0
# Processed by: cddbd v1.5.1PL0 Copyright (c) Steve Scherf et al.
# Submitted via: dBpowerAMP V4.0
#
DISCID=700a730a
DTITLE=Mica Paris - If You Could Love Me
DYEAR=2005
DGENRE=Soul
TTITLE0=I Luv You
TTITLE1=I Just Wanna Dance
TTITLE2=I'll Never Say I Love You Again
TTITLE3=I'm Not Your Mother
TTITLE4=Uh Oh
TTITLE5=18 Months And 26 Days
TTITLE6=Pack Your Bags
TTITLE7=Sweet Serenity
TTITLE8=Believe
TTITLE9=If U Could Love Me
EXTD=
EXTT0=
EXTT1=
EXTT2=
EXTT3=
EXTT4=
EXTT5=
EXTT6=
EXTT7=
EXTT8=
EXTT9=
PLAYORDER=
